<svg width="1600" height="900" viewBox="0 0 1600 900" xmlns="http://www.w3.org/2000/svg" role="img" aria-label="Camioneta en carretera">
  <defs>
    <linearGradient id="bg" x1="0" y1="0" x2="1" y2="1">
      <stop offset="0%" stop-color="#0c1320"/>
      <stop offset="60%" stop-color="#1e2b3f"/>
      <stop offset="100%" stop-color="#4f647f"/>
    </linearGradient>
    <linearGradient id="road" x1="0" y1="0" x2="0" y2="1">
      <stop offset="0%" stop-color="#20242c"/>
      <stop offset="100%" stop-color="#0f1116"/>
    </linearGradient>
  </defs>
  <rect width="1600" height="900" fill="url(#bg)"/>
  <polygon points="0,620 1600,520 1600,900 0,900" fill="url(#road)"/>
  <line x1="730" y1="690" x2="890" y2="675" stroke="#f3f4f6" stroke-width="10" stroke-linecap="round"/>
  <g transform="translate(420 450)">
    <rect x="120" y="140" width="650" height="120" rx="26" fill="#13161d"/>
    <path d="M220 140 L340 70 H560 L680 140 Z" fill="#1b2230"/>
    <rect x="360" y="90" width="170" height="50" rx="8" fill="#2f3d57"/>
    <circle cx="250" cy="280" r="62" fill="#0a0b0f"/>
    <circle cx="250" cy="280" r="28" fill="#8ea2bf"/>
    <circle cx="650" cy="280" r="62" fill="#0a0b0f"/>
    <circle cx="650" cy="280" r="28" fill="#8ea2bf"/>
    <rect x="735" y="170" width="22" height="28" rx="4" fill="#0a84ff"/>
    <rect x="132" y="170" width="22" height="28" rx="4" fill="#d90429"/>
  </g>
</svg>
